# xmcd
#
# Track frame offsets:
#	150
#	15488
#	30717
#	42768
#	54530
#	68266
#	85479
#	97760
#	110521
#	124604
#	137857
#	150907
#	164882
#	178062
#	191276
#	205830
#	217747
#
# Disc length: 3089 seconds
#
# Revision: 1
# Processed by: cddbd v1.5.2PL0 Copyright (c) Steve Scherf et al.
# Submitted via: EZCDAudioConverter 8.3.3.1
#
DISCID=d70c0f11
DTITLE=Jelly Roll Morton - New York, Washington and the Rediscovery - Volume 3
DYEAR=1991
DGENRE=Blues
TTITLE0=Boogaboo
TTITLE1=Shreveport Stomp
TTITLE2=Mournful Serenade
TTITLE3=Burnin' the Iceberg
TTITLE4=New Orleans Bump
TTITLE5=Blue Blood Blues
TTITLE6=Sporting House Rag
TTITLE7=Finger Buster
TTITLE8=Creepy Feeling
TTITLE9=Mamie's Blues
TTITLE10=The Crave
TTITLE11=Michigan Water Blues
TTITLE12=Minster Joe
TTITLE13=Winin' Boy Blues
TTITLE14=King Porter Stomp
TTITLE15=Buddy Bolden's Blues
TTITLE16=Sweet Substitute
EXTD=
EXTT0=
EXTT1=
EXTT2=
EXTT3=
EXTT4=
EXTT5=
EXTT6=
EXTT7=
EXTT8=
EXTT9=
EXTT10=
EXTT11=
EXTT12=
EXTT13=
EXTT14=
EXTT15=
EXTT16=
PLAYORDER=
